<svg width="24" height="22" viewBox="0 0 24 22" fill="none" xmlns="http://www.w3.org/2000/svg">
<path d="M19 -0.000244141H5C3.67441 0.00134372 2.40356 0.528638 1.46622 1.46598C0.528882 2.40331 0.00158786 3.67416 0 4.99976L0 12.9998C0.00158786 14.3254 0.528882 15.5962 1.46622 16.5335C2.40356 17.4709 3.67441 17.9982 5 17.9998H11V19.9998H7C6.73478 19.9998 6.48043 20.1051 6.29289 20.2926C6.10536 20.4802 6 20.7345 6 20.9998C6 21.265 6.10536 21.5193 6.29289 21.7069C6.48043 21.8944 6.73478 21.9998 7 21.9998H17C17.2652 21.9998 17.5196 21.8944 17.7071 21.7069C17.8946 21.5193 18 21.265 18 20.9998C18 20.7345 17.8946 20.4802 17.7071 20.2926C17.5196 20.1051 17.2652 19.9998 17 19.9998H13V17.9998H19C20.3256 17.9982 21.5964 17.4709 22.5338 16.5335C23.4711 15.5962 23.9984 14.3254 24 12.9998V4.99976C23.9984 3.67416 23.4711 2.40331 22.5338 1.46598C21.5964 0.528638 20.3256 0.00134372 19 -0.000244141ZM5 1.99976H19C19.7956 1.99976 20.5587 2.31583 21.1213 2.87844C21.6839 3.44104 22 4.20411 22 4.99976V11.9998H2V4.99976C2 4.20411 2.31607 3.44104 2.87868 2.87844C3.44129 2.31583 4.20435 1.99976 5 1.99976ZM19 15.9998H5C4.38174 15.9972 3.77937 15.8037 3.2753 15.4457C2.77123 15.0877 2.39008 14.5827 2.184 13.9998H21.816C21.6099 14.5827 21.2288 15.0877 20.7247 15.4457C20.2206 15.8037 19.6183 15.9972 19 15.9998Z" fill="#09BDCD"/>
</svg>
