<svg width="46" height="46" viewBox="0 0 46 46" fill="none" xmlns="http://www.w3.org/2000/svg">
<g clip-path="url(#clip0_737_439)">
<path d="M17.6607 24.9878C13.2959 25.828 11.1332 30.6883 10.1951 33.7175C10.1066 33.9998 10.0859 34.2991 10.1346 34.5909C10.1833 34.8828 10.3001 35.159 10.4755 35.3974C10.6509 35.6357 10.8799 35.8293 11.1441 35.9626C11.4083 36.0959 11.7001 36.1651 11.996 36.1646H19.002C19.7878 36.1647 20.5649 36.001 21.2839 35.6839C22.0028 35.3668 22.6477 34.9032 23.1774 34.3228C23.7071 33.7424 24.1099 33.0579 24.3602 32.3131C24.6105 31.5683 24.7027 30.7794 24.6309 29.9969C24.5308 29.1974 24.2666 28.4272 23.855 27.7345C23.4434 27.0418 22.8933 26.4415 22.2389 25.9713C21.5846 25.501 20.8402 25.171 20.0524 25.0018C19.2647 24.8325 18.4504 24.8278 17.6607 24.9878V24.9878Z" fill="#09BDCD"/>
<path d="M43.4917 17.287C42.9921 17.287 42.513 17.4854 42.1597 17.8387C41.8064 18.192 41.6079 18.6712 41.6079 19.1708V28.6295H34.0726C32.5737 28.6295 31.1362 29.2249 30.0764 30.2848C29.0165 31.3447 28.4211 32.7821 28.4211 34.281V41.8163H9.58274C8.08387 41.8163 6.64639 41.2209 5.58653 40.1611C4.52667 39.1012 3.93124 37.6637 3.93124 36.1648V9.79118C3.93124 8.29231 4.52667 6.85482 5.58653 5.79496C6.64639 4.7351 8.08387 4.13968 9.58274 4.13968H30.384C30.8837 4.13968 31.3628 3.9412 31.7161 3.58791C32.0694 3.23463 32.2679 2.75547 32.2679 2.25584C32.2679 1.75622 32.0694 1.27706 31.7161 0.923771C31.3628 0.570484 30.8837 0.372009 30.384 0.372009L9.58274 0.372009C7.08554 0.375001 4.69148 1.36833 2.92569 3.13412C1.1599 4.89991 0.166565 7.29398 0.163574 9.79118L0.163574 36.1648C0.166565 38.662 1.1599 41.0561 2.92569 42.8219C4.69148 44.5877 7.08554 45.581 9.58274 45.584H30.9511C32.1883 45.5875 33.4139 45.3455 34.557 44.8721C35.7001 44.3987 36.7379 43.7033 37.6104 42.8261L42.6176 37.8189C43.4949 36.9464 44.1903 35.9085 44.6637 34.7655C45.1371 33.6224 45.3791 32.3967 45.3756 31.1595V19.1708C45.3756 18.6712 45.1771 18.192 44.8238 17.8387C44.4705 17.4854 43.9914 17.287 43.4917 17.287ZM34.9467 40.1623C34.187 40.9135 33.2313 41.4358 32.1887 41.6694V34.281C32.1887 33.7814 32.3872 33.3022 32.7405 32.9489C33.0938 32.5957 33.573 32.3972 34.0726 32.3972H41.4666C41.233 33.4397 40.7107 34.3954 39.9596 35.1551L34.9467 40.1623Z" fill="#09BDCD"/>
<path d="M27.6035 27.0656C27.231 27.0655 26.8668 26.955 26.5571 26.748C26.2474 26.541 26.006 26.2468 25.8634 25.9026C25.7209 25.5584 25.6836 25.1797 25.7562 24.8143C25.8289 24.449 26.0082 24.1133 26.2716 23.8499L41.0654 9.05614C41.2307 8.89113 41.3619 8.69513 41.4514 8.47936C41.5409 8.26359 41.587 8.03228 41.587 7.79868C41.587 7.56508 41.5409 7.33377 41.4514 7.118C41.3619 6.90223 41.2307 6.70623 41.0654 6.54122C40.8972 6.36636 40.6935 6.22963 40.4679 6.14026C40.2424 6.05088 40.0003 6.01096 39.758 6.02317C39.5158 6.02844 39.2774 6.0837 39.0576 6.18549C38.8378 6.28728 38.6414 6.43341 38.4807 6.61469L24.1636 22.4521C23.8286 22.8228 23.3601 23.0453 22.861 23.0705C22.362 23.0958 21.8734 22.9218 21.5027 22.5868C21.132 22.2518 20.9095 21.7832 20.8842 21.2842C20.859 20.7852 21.033 20.2966 21.368 19.9259L35.6851 4.10166C36.1872 3.54115 36.7979 3.08849 37.4802 2.77114C38.1625 2.45379 38.9022 2.27836 39.6544 2.2555C40.4077 2.23936 41.1566 2.37479 41.8566 2.65374C42.5566 2.9327 43.1934 3.34949 43.7291 3.87937C44.7675 4.92014 45.3507 6.33034 45.3507 7.80057C45.3507 9.2708 44.7675 10.681 43.7291 11.7218L28.9354 26.5155C28.7607 26.6907 28.5531 26.8295 28.3245 26.9239C28.0959 27.0184 27.8508 27.0665 27.6035 27.0656Z" fill="#09BDCD"/>
</g>
<defs>
<clipPath id="clip0_737_439">
<rect width="45.212" height="45.212" fill="white" transform="translate(0.163574 0.372009)"/>
</clipPath>
</defs>
</svg>
