<svg width="32" height="32" viewBox="0 0 32 32" fill="none" xmlns="http://www.w3.org/2000/svg">
<path d="M29.333 20.2453V10.6667C29.3309 8.89919 28.6279 7.20473 27.3781 5.95494C26.1283 4.70516 24.4338 4.0021 22.6664 3.99998H9.33303C7.56557 4.0021 5.87111 4.70516 4.62133 5.95494C3.37154 7.20473 2.66849 8.89919 2.66637 10.6667V20.2453C1.77746 20.5584 1.02804 21.176 0.55085 21.9887C0.0736575 22.8014 -0.100514 23.7567 0.059185 24.6856C0.218884 25.6144 0.702146 26.4567 1.42338 27.0633C2.14461 27.67 3.05727 28.0018 3.9997 28H27.9997C28.9421 28.0018 29.8548 27.67 30.576 27.0633C31.2973 26.4567 31.7805 25.6144 31.9402 24.6856C32.0999 23.7567 31.9257 22.8014 31.4486 21.9887C30.9714 21.176 30.2219 20.5584 29.333 20.2453V20.2453ZM9.33303 6.66665H22.6664C23.7272 6.66665 24.7447 7.08808 25.4948 7.83822C26.2449 8.58837 26.6664 9.60579 26.6664 10.6667V20H21.1317C20.7439 19.9997 20.3607 20.0841 20.0088 20.2471C19.657 20.4101 19.3449 20.648 19.0944 20.944L18.765 21.3333H13.233L12.905 20.944C12.6545 20.648 12.3424 20.4101 11.9906 20.2471C11.6387 20.0841 11.2555 19.9997 10.8677 20H5.33303V10.6667C5.33303 9.60579 5.75446 8.58837 6.50461 7.83822C7.25475 7.08808 8.27217 6.66665 9.33303 6.66665V6.66665ZM27.9997 25.3333H3.9997C3.64608 25.3333 3.30694 25.1928 3.05689 24.9428C2.80684 24.6927 2.66637 24.3536 2.66637 24C2.66637 23.6464 2.80684 23.3072 3.05689 23.0572C3.30694 22.8071 3.64608 22.6667 3.9997 22.6667H10.869L11.197 23.056C11.4474 23.3518 11.7593 23.5896 12.1109 23.7526C12.4625 23.9156 12.8455 24 13.233 24H18.765C19.1528 24.0002 19.536 23.9159 19.8879 23.7529C20.2398 23.5898 20.5518 23.352 20.8024 23.056L21.1317 22.6667H27.9997C28.3533 22.6667 28.6925 22.8071 28.9425 23.0572C29.1926 23.3072 29.333 23.6464 29.333 24C29.333 24.3536 29.1926 24.6927 28.9425 24.9428C28.6925 25.1928 28.3533 25.3333 27.9997 25.3333Z" fill="url(#paint0_linear_715_1257)"/>
<defs>
<linearGradient id="paint0_linear_715_1257" x1="-7.49771" y1="-32.75" x2="22.3294" y2="54.084" gradientUnits="userSpaceOnUse">
<stop stop-color="#C90285"/>
<stop offset="1" stop-color="#09BDCD"/>
</linearGradient>
</defs>
</svg>
