<svg width="32" height="32" viewBox="0 0 32 32" fill="none" xmlns="http://www.w3.org/2000/svg">
<g clip-path="url(#clip0_715_1775)">
<path d="M12 16C13.5823 16 15.129 15.5308 16.4446 14.6518C17.7602 13.7727 18.7855 12.5233 19.391 11.0615C19.9965 9.59966 20.155 7.99113 19.8463 6.43928C19.5376 4.88743 18.7757 3.46197 17.6569 2.34315C16.538 1.22433 15.1126 0.462403 13.5607 0.153721C12.0089 -0.15496 10.4003 0.00346629 8.93853 0.608967C7.47672 1.21447 6.22729 2.23985 5.34824 3.55544C4.46919 4.87104 4 6.41775 4 8C4.00212 10.1211 4.84565 12.1547 6.34549 13.6545C7.84532 15.1544 9.87892 15.9979 12 16ZM12 2.66667C13.0548 2.66667 14.086 2.97947 14.963 3.5655C15.8401 4.15153 16.5237 4.98449 16.9274 5.95903C17.331 6.93357 17.4366 8.00592 17.2309 9.04049C17.0251 10.0751 16.5171 11.0254 15.7712 11.7712C15.0254 12.5171 14.075 13.0251 13.0405 13.2309C12.0059 13.4366 10.9336 13.331 9.95902 12.9274C8.98448 12.5237 8.15153 11.8401 7.5655 10.963C6.97946 10.086 6.66667 9.05484 6.66667 8C6.66667 6.58552 7.22857 5.22896 8.22876 4.22877C9.22896 3.22857 10.5855 2.66667 12 2.66667Z" fill="url(#paint0_linear_715_1775)"/>
<path d="M12 18.666C8.81859 18.6699 5.7686 19.9354 3.51901 22.185C1.26941 24.4346 0.00388127 27.4846 0 30.666C0 31.0196 0.140476 31.3587 0.390524 31.6088C0.640573 31.8588 0.979711 31.9993 1.33333 31.9993C1.68696 31.9993 2.02609 31.8588 2.27614 31.6088C2.52619 31.3587 2.66667 31.0196 2.66667 30.666C2.66667 28.1906 3.65 25.8167 5.40034 24.0663C7.15068 22.316 9.52465 21.3327 12 21.3327C14.4754 21.3327 16.8493 22.316 18.5997 24.0663C20.35 25.8167 21.3333 28.1906 21.3333 30.666C21.3333 31.0196 21.4738 31.3587 21.7239 31.6088C21.9739 31.8588 22.313 31.9993 22.6667 31.9993C23.0203 31.9993 23.3594 31.8588 23.6095 31.6088C23.8595 31.3587 24 31.0196 24 30.666C23.9961 27.4846 22.7306 24.4346 20.481 22.185C18.2314 19.9354 15.1814 18.6699 12 18.666Z" fill="url(#paint1_linear_715_1775)"/>
<path d="M29.331 10.5C28.589 10.537 27.8918 10.8664 27.392 11.4161C26.8923 11.9658 26.6306 12.6911 26.6643 13.4333C26.698 12.6911 26.4364 11.9658 25.9366 11.4161C25.4369 10.8664 24.7397 10.537 23.9977 10.5C23.2557 10.537 22.5585 10.8664 22.0587 11.4161C21.559 11.9658 21.2973 12.6911 21.331 13.4333C21.331 15.74 24.339 18.4427 25.8377 19.6453C26.0723 19.8332 26.3638 19.9355 26.6643 19.9355C26.9649 19.9355 27.2564 19.8332 27.491 19.6453C28.9897 18.4453 31.9977 15.74 31.9977 13.4333C32.0314 12.6911 31.7697 11.9658 31.27 11.4161C30.7702 10.8664 30.073 10.537 29.331 10.5Z" fill="url(#paint2_linear_715_1775)"/>
</g>
<defs>
<linearGradient id="paint0_linear_715_1775" x1="0.249999" y1="-24.5" x2="24.75" y2="29" gradientUnits="userSpaceOnUse">
<stop stop-color="#C90285"/>
<stop offset="1" stop-color="#09BDCD"/>
</linearGradient>
<linearGradient id="paint1_linear_715_1775" x1="-5.625" y1="-1.75059" x2="7.26207" y2="48.9036" gradientUnits="userSpaceOnUse">
<stop stop-color="#C90285"/>
<stop offset="1" stop-color="#09BDCD"/>
</linearGradient>
<linearGradient id="paint2_linear_715_1775" x1="18.8268" y1="-3.9481" x2="32.1029" y2="28.8432" gradientUnits="userSpaceOnUse">
<stop stop-color="#C90285"/>
<stop offset="1" stop-color="#09BDCD"/>
</linearGradient>
<clipPath id="clip0_715_1775">
<rect width="32" height="32" fill="white"/>
</clipPath>
</defs>
</svg>
