<svg width="33" height="32" viewBox="0 0 33 32" fill="none" xmlns="http://www.w3.org/2000/svg">
<g clip-path="url(#clip0_715_1287)">
<path d="M25.6668 5.33333H24.2002C23.8907 3.82855 23.0719 2.47646 21.8818 1.50496C20.6917 0.533453 19.2031 0.00193937 17.6668 0L15.0002 0C13.4639 0.00193937 11.9753 0.533453 10.7852 1.50496C9.59507 2.47646 8.77629 3.82855 8.46683 5.33333H7.00016C5.2327 5.33545 3.53824 6.03851 2.28846 7.28829C1.03867 8.53808 0.335613 10.2325 0.333496 12L0.333496 25.3333C0.335613 27.1008 1.03867 28.7953 2.28846 30.045C3.53824 31.2948 5.2327 31.9979 7.00016 32H25.6668C27.4343 31.9979 29.1288 31.2948 30.3785 30.045C31.6283 28.7953 32.3314 27.1008 32.3335 25.3333V12C32.3314 10.2325 31.6283 8.53808 30.3785 7.28829C29.1288 6.03851 27.4343 5.33545 25.6668 5.33333V5.33333ZM15.0002 2.66667H17.6668C18.4912 2.67008 19.2943 2.92811 19.9664 3.40545C20.6385 3.88279 21.1467 4.55612 21.4215 5.33333H11.2455C11.5203 4.55612 12.0285 3.88279 12.7006 3.40545C13.3727 2.92811 14.1758 2.67008 15.0002 2.66667V2.66667ZM7.00016 8H25.6668C26.7277 8 27.7451 8.42143 28.4953 9.17157C29.2454 9.92172 29.6668 10.9391 29.6668 12V16H3.00016V12C3.00016 10.9391 3.42159 9.92172 4.17174 9.17157C4.92188 8.42143 5.9393 8 7.00016 8V8ZM25.6668 29.3333H7.00016C5.9393 29.3333 4.92188 28.9119 4.17174 28.1618C3.42159 27.4116 3.00016 26.3942 3.00016 25.3333V18.6667H15.0002V20C15.0002 20.3536 15.1406 20.6928 15.3907 20.9428C15.6407 21.1929 15.9799 21.3333 16.3335 21.3333C16.6871 21.3333 17.0263 21.1929 17.2763 20.9428C17.5264 20.6928 17.6668 20.3536 17.6668 20V18.6667H29.6668V25.3333C29.6668 26.3942 29.2454 27.4116 28.4953 28.1618C27.7451 28.9119 26.7277 29.3333 25.6668 29.3333Z" fill="url(#paint0_linear_715_1287)"/>
</g>
<defs>
<linearGradient id="paint0_linear_715_1287" x1="-7.1665" y1="-49" x2="41.8335" y2="58" gradientUnits="userSpaceOnUse">
<stop stop-color="#C90285"/>
<stop offset="1" stop-color="#09BDCD"/>
</linearGradient>
<clipPath id="clip0_715_1287">
<rect width="32" height="32" fill="white" transform="translate(0.333496)"/>
</clipPath>
</defs>
</svg>
