<svg width="33" height="32" viewBox="0 0 33 32" fill="none" xmlns="http://www.w3.org/2000/svg">
<g clip-path="url(#clip0_715_1311)">
<path d="M26.7132 4.16273L24.5052 1.95206C23.8874 1.33114 23.1526 0.838913 22.3433 0.503853C21.5341 0.168793 20.6664 -0.00244032 19.7905 6.13529e-05H11.3332C9.56571 0.0021785 7.87125 0.705237 6.62146 1.95502C5.37168 3.20481 4.66862 4.89927 4.6665 6.66673V25.3334C4.66862 27.1009 5.37168 28.7953 6.62146 30.0451C7.87125 31.2949 9.56571 31.9979 11.3332 32.0001H21.9998C23.7673 31.9979 25.4618 31.2949 26.7115 30.0451C27.9613 28.7953 28.6644 27.1009 28.6665 25.3334V8.87606C28.6687 8.00031 28.4971 7.13282 28.1618 6.32378C27.8266 5.51475 27.3342 4.78023 26.7132 4.16273V4.16273ZM24.8278 6.04806C25.017 6.23649 25.1863 6.44379 25.3332 6.66673H21.9998V3.3334C22.2224 3.48182 22.4301 3.65151 22.6198 3.84006L24.8278 6.04806ZM25.9998 25.3334C25.9998 26.3943 25.5784 27.4117 24.8283 28.1618C24.0781 28.912 23.0607 29.3334 21.9998 29.3334H11.3332C10.2723 29.3334 9.25489 28.912 8.50474 28.1618C7.7546 27.4117 7.33317 26.3943 7.33317 25.3334V6.66673C7.33317 5.60586 7.7546 4.58845 8.50474 3.8383C9.25489 3.08816 10.2723 2.66673 11.3332 2.66673H19.3332V6.66673C19.3332 7.37397 19.6141 8.05225 20.1142 8.55235C20.6143 9.05244 21.2926 9.3334 21.9998 9.3334H25.9998V25.3334ZM21.9998 12.0001C22.3535 12.0001 22.6926 12.1405 22.9426 12.3906C23.1927 12.6406 23.3332 12.9798 23.3332 13.3334C23.3332 13.687 23.1927 14.0262 22.9426 14.2762C22.6926 14.5263 22.3535 14.6667 21.9998 14.6667H11.3332C10.9795 14.6667 10.6404 14.5263 10.3904 14.2762C10.1403 14.0262 9.99984 13.687 9.99984 13.3334C9.99984 12.9798 10.1403 12.6406 10.3904 12.3906C10.6404 12.1405 10.9795 12.0001 11.3332 12.0001H21.9998ZM23.3332 18.6667C23.3332 19.0204 23.1927 19.3595 22.9426 19.6095C22.6926 19.8596 22.3535 20.0001 21.9998 20.0001H11.3332C10.9795 20.0001 10.6404 19.8596 10.3904 19.6095C10.1403 19.3595 9.99984 19.0204 9.99984 18.6667C9.99984 18.3131 10.1403 17.974 10.3904 17.7239C10.6404 17.4739 10.9795 17.3334 11.3332 17.3334H21.9998C22.3535 17.3334 22.6926 17.4739 22.9426 17.7239C23.1927 17.974 23.3332 18.3131 23.3332 18.6667ZM23.0772 23.2174C23.2844 23.5025 23.3703 23.8581 23.3161 24.2065C23.2619 24.5548 23.072 24.8674 22.7878 25.0761C21.4369 26.0387 19.8369 26.591 18.1798 26.6667C17.2117 26.6621 16.2729 26.3335 15.5132 25.7334C15.0758 25.4334 14.9092 25.3334 14.5798 25.3334C13.6884 25.4713 12.8473 25.8359 12.1372 26.3921C11.8555 26.5929 11.5068 26.6763 11.1648 26.6248C10.8227 26.5734 10.514 26.391 10.3039 26.1161C10.0939 25.8413 9.9988 25.4956 10.0388 25.152C10.0789 24.8085 10.2509 24.4939 10.5185 24.2747C11.6934 23.3626 13.1042 22.8048 14.5852 22.6667C15.4733 22.6809 16.332 22.9879 17.0278 23.5401C17.345 23.8254 17.7534 23.9884 18.1798 24.0001C19.2701 23.9184 20.3185 23.5459 21.2158 22.9214C21.502 22.714 21.8587 22.6287 22.2078 22.6842C22.5568 22.7397 22.8695 22.9315 23.0772 23.2174V23.2174Z" fill="url(#paint0_linear_715_1311)"/>
</g>
<defs>
<linearGradient id="paint0_linear_715_1311" x1="-0.9585" y1="-49" x2="56.6124" y2="45.287" gradientUnits="userSpaceOnUse">
<stop stop-color="#C90285"/>
<stop offset="1" stop-color="#09BDCD"/>
</linearGradient>
<clipPath id="clip0_715_1311">
<rect width="32" height="32" fill="white" transform="translate(0.666504)"/>
</clipPath>
</defs>
</svg>
