<svg width="32" height="32" viewBox="0 0 32 32" fill="none" xmlns="http://www.w3.org/2000/svg">
<g clip-path="url(#clip0_715_1423)">
<path d="M31.6098 29.7234L30.1738 28.2874L27.8671 25.9847L31.5858 22.2661C31.7441 22.1075 31.8599 21.9117 31.9225 21.6966C31.9851 21.4815 31.9925 21.2541 31.944 21.0353C31.8955 20.8166 31.7926 20.6137 31.645 20.4452C31.4973 20.2767 31.3096 20.1482 31.0991 20.0714L19.1405 15.7327C18.6641 15.5606 18.1486 15.5276 17.6542 15.6377C17.1598 15.7479 16.707 15.9965 16.3488 16.3546C15.9906 16.7127 15.7417 17.1654 15.6314 17.6598C15.5211 18.1541 15.5538 18.6696 15.7258 19.1461L20.0765 31.1047C20.1529 31.3154 20.2811 31.5034 20.4494 31.6513C20.6176 31.7993 20.8205 31.9025 21.0391 31.9514C21.1342 31.9721 21.2312 31.9823 21.3285 31.9821C21.6821 31.982 22.0212 31.8415 22.2711 31.5914L25.9858 27.8661L28.2885 30.1687L29.7245 31.6047C29.9759 31.8476 30.3127 31.982 30.6623 31.979C31.0119 31.9759 31.3464 31.8357 31.5936 31.5885C31.8408 31.3413 31.981 31.0069 31.984 30.6573C31.9871 30.3077 31.8527 29.9709 31.6098 29.7194V29.7234ZM21.8671 28.2194L18.2351 18.2327L28.2218 21.8647L21.8671 28.2194Z" fill="url(#paint0_linear_715_1423)"/>
<path d="M13.3333 26.6667C10.6963 26.6667 8.11839 25.8847 5.92574 24.4196C3.73308 22.9545 2.02411 20.8721 1.01495 18.4358C0.00577712 15.9994 -0.258267 13.3185 0.256202 10.7321C0.770672 8.14572 2.04055 5.76995 3.90525 3.90525C5.76995 2.04055 8.14572 0.770672 10.7321 0.256202C13.3185 -0.258267 15.9994 0.00577712 18.4358 1.01495C20.8721 2.02411 22.9545 3.73308 24.4196 5.92574C25.8847 8.11839 26.6667 10.6963 26.6667 13.3333C26.6667 13.687 26.5262 14.0261 26.2761 14.2761C26.0261 14.5262 25.687 14.6667 25.3333 14.6667C24.9797 14.6667 24.6406 14.5262 24.3905 14.2761C24.1405 14.0261 24 13.687 24 13.3333C24 11.2237 23.3744 9.16138 22.2023 7.40726C21.0303 5.65313 19.3644 4.28596 17.4153 3.47862C15.4662 2.67129 13.3215 2.46005 11.2524 2.87163C9.18325 3.28321 7.28263 4.29911 5.79087 5.79087C4.29911 7.28263 3.28321 9.18325 2.87163 11.2524C2.46005 13.3215 2.67129 15.4662 3.47862 17.4153C4.28596 19.3644 5.65313 21.0303 7.40726 22.2023C9.16138 23.3744 11.2237 24 13.3333 24C13.687 24 14.0261 24.1405 14.2761 24.3905C14.5262 24.6406 14.6667 24.9797 14.6667 25.3333C14.6667 25.687 14.5262 26.0261 14.2761 26.2761C14.0261 26.5262 13.687 26.6667 13.3333 26.6667Z" fill="url(#paint1_linear_715_1423)"/>
<path d="M10.7785 20.8269C10.6033 20.827 10.4298 20.7926 10.2679 20.7256C9.05302 20.221 7.98133 19.4246 7.14773 18.407C6.31412 17.3893 5.74433 16.1818 5.4888 14.8914C5.23328 13.601 5.29991 12.2675 5.6828 11.009C6.06568 9.75045 6.75301 8.60576 7.6839 7.67629C8.6148 6.74682 9.76053 6.06125 11.0196 5.68029C12.2787 5.29933 13.6124 5.23474 14.9024 5.49224C16.1924 5.74974 17.3991 6.32139 18.4154 7.15655C19.4318 7.99171 20.2265 9.06461 20.7292 10.2802C20.7997 10.4427 20.8371 10.6175 20.8393 10.7945C20.8415 10.9715 20.8084 11.1472 20.7419 11.3113C20.6755 11.4754 20.577 11.6246 20.4523 11.7503C20.3276 11.8759 20.1791 11.9755 20.0154 12.0431C19.8518 12.1107 19.6764 12.1451 19.4994 12.1442C19.3223 12.1433 19.1472 12.1072 18.9843 12.0379C18.8214 11.9687 18.6739 11.8676 18.5504 11.7407C18.427 11.6139 18.33 11.4637 18.2652 11.2989C17.9293 10.4892 17.399 9.77482 16.7212 9.21891C16.0434 8.66301 15.239 8.28274 14.3793 8.11176C13.5195 7.94078 12.6308 7.98436 11.7919 8.23864C10.953 8.49292 10.1897 8.95006 9.56957 9.56962C8.94943 10.1892 8.49155 10.952 8.23647 11.7907C7.98138 12.6294 7.93696 13.518 8.10711 14.3779C8.27727 15.2378 8.65677 16.0426 9.21203 16.7209C9.76729 17.3992 10.4812 17.9302 11.2905 18.2669C11.5758 18.3849 11.8112 18.5983 11.9567 18.8706C12.1022 19.1428 12.1487 19.4571 12.0882 19.7599C12.0278 20.0626 11.8642 20.335 11.6254 20.5305C11.3865 20.7261 11.0872 20.8327 10.7785 20.8322V20.8269Z" fill="url(#paint2_linear_715_1423)"/>
</g>
<defs>
<linearGradient id="paint0_linear_715_1423" x1="11.7197" y1="-9.55098" x2="36.836" y2="45.3236" gradientUnits="userSpaceOnUse">
<stop stop-color="#C90285"/>
<stop offset="1" stop-color="#09BDCD"/>
</linearGradient>
<linearGradient id="paint1_linear_715_1423" x1="-6.25" y1="-40.8333" x2="34.5833" y2="48.3333" gradientUnits="userSpaceOnUse">
<stop stop-color="#C90285"/>
<stop offset="1" stop-color="#09BDCD"/>
</linearGradient>
<linearGradient id="paint2_linear_715_1423" x1="1.70292" y1="-18.3889" x2="25.4211" y2="33.4312" gradientUnits="userSpaceOnUse">
<stop stop-color="#C90285"/>
<stop offset="1" stop-color="#09BDCD"/>
</linearGradient>
<clipPath id="clip0_715_1423">
<rect width="32" height="32" fill="white"/>
</clipPath>
</defs>
</svg>
